<?xml version="1.0" encoding="UTF-8"?>
<svg id="Capa_2" data-name="Capa 2" xmlns="http://www.w3.org/2000/svg" viewBox="0 0 492.22 338.51">
  <defs>
    <style>
      .cls-1 {
        fill: #fff;
      }
    </style>
  </defs>
  <g id="Capa_1-2" data-name="Capa 1">
    <g>
      <g>
        <polygon class="cls-1" points="277.39 185.5 283.37 185.5 365.98 .53 360.55 .5 280.38 179.95 199.51 .64 199.25 .06 193.75 0 277.13 184.91 277.39 185.5"/>
        <polygon class="cls-1" points="287.52 188.82 285.88 191.56 282.84 191.01 286.72 199.72 177.12 198.88 227.71 89.7 227.81 89.48 224.92 83.79 143.38 259.03 143.05 259.74 148.91 259.76 175.28 202.87 288.51 203.74 313.51 259.87 320.02 259.96 287.92 189.68 287.52 188.82"/>
      </g>
      <g>
        <path class="cls-1" d="M15.08,311.26h-2.41l-12.67,26.79h2.69l3.42-7.26h15.54l3.38,7.26h2.69l-12.56-26.65-.07-.14ZM20.68,328.59H7.07l6.81-14.44,6.81,14.44Z"/>
        <polygon class="cls-1" points="57.28 329.31 46.31 311.38 46.24 311.26 43.6 311.26 43.6 338.06 46.07 338.06 46.07 315.33 56.46 332.36 58.11 332.36 68.46 315.33 68.46 338.06 70.97 338.06 70.97 311.26 68.33 311.26 57.28 329.31"/>
        <polygon class="cls-1" points="89.34 338.06 107.7 338.06 107.7 335.77 91.85 335.77 91.85 325.9 106.42 325.9 106.42 323.61 91.85 323.61 91.85 313.55 107.7 313.55 107.7 311.26 89.34 311.26 89.34 338.06"/>
        <path class="cls-1" d="M145.56,320.06v-.04c0-5.49-3.94-8.76-10.55-8.76h-10.71v26.79h2.51v-9.54h8.2c.39,0,.8,0,1.17-.03l7.36,9.56h2.89l-7.75-9.93c4.38-1,6.89-3.92,6.89-8.06ZM126.81,313.51h8.2c5.11,0,8.04,2.37,8.04,6.55,0,3.91-3.01,6.25-8.04,6.25h-8.2v-12.8Z"/>
        <rect class="cls-1" x="162.68" y="311.26" width="2.51" height="26.79"/>
        <path class="cls-1" d="M203.9,333.92c-1.99,1.51-4.63,2.3-7.69,2.3-6.98,0-11.7-4.65-11.74-11.6,0-6.79,4.83-11.53,11.74-11.53h.04c3.03,0,5.68.8,7.65,2.3l.2.15,1.43-1.84-.2-.15c-2.45-1.85-5.42-2.75-9.12-2.75-8.52,0-14.25,5.55-14.25,13.85s5.73,13.85,14.29,13.85c3.62,0,6.59-.9,9.08-2.75l.21-.15-1.44-1.84-.2.15Z"/>
        <path class="cls-1" d="M233.98,311.26h-2.41l-12.67,26.79h2.69l3.42-7.26h15.54l3.38,7.26h2.69l-12.56-26.65-.07-.14ZM239.58,328.59h-13.62l6.81-14.44,6.81,14.44Z"/>
        <polygon class="cls-1" points="283.62 334.25 265 311.26 262.5 311.26 262.5 338.06 264.97 338.06 264.97 315.07 283.59 338.06 286.09 338.06 286.09 311.26 283.62 311.26 283.62 334.25"/>
        <polygon class="cls-1" points="336.81 334.83 326.55 311.26 323.91 311.26 335.58 337.91 335.64 338.06 337.98 338.06 349.72 311.26 347.08 311.26 336.81 334.83"/>
        <path class="cls-1" d="M374.13,311.26l-12.2,26.79h2.6l3.29-7.26h14.95l3.26,7.26h2.6l-12.16-26.79h-2.34ZM381.85,328.59h-13.1l6.55-14.42,6.55,14.42Z"/>
        <path class="cls-1" d="M423.81,326.37c0,6.15-3.37,9.82-9.05,9.82s-9.01-3.67-9.01-9.82v-15.11h-2.44v15.11c0,7.72,4.17,12.14,11.49,12.14s11.45-4.43,11.45-12.14v-15.11h-2.44v15.11Z"/>
        <polygon class="cls-1" points="445.94 311.26 443.5 311.26 443.5 338.06 462.38 338.06 462.38 335.73 445.94 335.73 445.94 311.26"/>
        <polygon class="cls-1" points="470.98 311.26 470.98 313.59 480.36 313.59 480.36 338.06 482.84 338.06 482.84 313.59 492.22 313.59 492.22 311.26 470.98 311.26"/>
      </g>
    </g>
  </g>
</svg>